<svg xmlns="http://www.w3.org/2000/svg">

	<defs>
		<style>
			:root svg:not(:target) {
				display: none;
			}
		</style>
	</defs>

  <svg id="linkedin" viewBox="0 0 24 24" fill="none">
    <path fill="currentcolor" d="M22.186-.063c.979 0 1.776.775 1.776 1.73V22.21c0 .956-.797 1.733-1.776 1.733H1.727c-.977 0-1.77-.777-1.77-1.733V1.668c0-.955.793-1.73 1.77-1.73h20.46Zm-1.773 20.455V14.11c0-3.086-.666-5.458-4.271-5.458-1.733 0-2.894.95-3.37 1.85h-.048V8.936H9.311v11.456h3.556v-5.666c0-1.494.283-2.942 2.136-2.942 1.827 0 1.85 1.709 1.85 3.037v5.571h3.56ZM7.078 8.936H3.513v11.456h3.565V8.936ZM5.296 3.241a2.064 2.064 0 1 0 0 4.13 2.065 2.065 0 0 0 0-4.13Z"/>
  </svg>

  <svg id="check" viewBox="0 0 20 16" fill="none">
    <path d="M2 8L8 14L18 2" stroke="currentcolor" stroke-linecap="round" stroke-linejoin="round"/>
  </svg>

  <svg id="cross" viewBox="0 0 24 24" fill="none">
    <path d="M23 1L1 23M23 23L1 1L23 23Z" stroke="currentcolor" stroke-linecap="round" stroke-linejoin="round"/>
  </svg>

  <svg id="gift" viewBox="0 0 24 24" fill="none">
    <path d="M22 9H2.00002C1.72402 9 1.5 9.22402 1.5 9.50002V23.5C1.5 23.776 1.72402 24 2.00002 24H22C22.276 24 22.5 23.776 22.5 23.5V9.50002C22.5 9.22402 22.276 9 22 9ZM21.5 23H2.49998V9.99998H21.5V23H21.5Z" fill="currentcolor"/>
    <path d="M23 5H1.00002C0.724016 5 0.5 5.22402 0.5 5.50002V9.50001C0.5 9.77601 0.724016 10 1.00002 10H23C23.276 10 23.5 9.77601 23.5 9.50001V5.50002C23.5 5.22397 23.276 5 23 5ZM22.5 8.99999H1.50003V5.99999H22.5V8.99999Z" fill="currentcolor"/>
    <path d="M12 5C11.724 5 11.5 5.22402 11.5 5.50002V23.5C11.5 23.776 11.724 24 12 24C12.276 24 12.5 23.776 12.5 23.5V5.50002C12.5 5.22397 12.276 5 12 5Z" fill="currentcolor"/>
    <path d="M12.511 5.382C11.997 2.97098 8.93101 0.384 6.888 0.0380156C6.762 0.0129844 6.633 0 6.50002 0C5.397 0 4.5 0.897 4.5 2.00002C4.5 2.46103 4.66102 2.91103 4.953 3.26803C4.95699 3.27103 4.95999 3.27605 4.96299 3.28003C6.44799 5.17702 11.391 5.90405 11.953 5.98102C11.976 5.98402 11.999 5.98603 12.021 5.98603C12.16 5.98603 12.292 5.92903 12.388 5.82605C12.499 5.70698 12.545 5.541 12.511 5.382ZM5.73699 2.64502C5.72799 2.63203 5.718 2.62102 5.70797 2.61C5.57199 2.43502 5.49999 2.22398 5.49999 2.00002C5.49999 1.44802 5.949 1.00003 6.49997 1.00003C6.56597 1.00003 6.63099 1.00702 6.70796 1.02103C8.20698 1.27505 10.47 3.08902 11.283 4.85902C9.54203 4.53802 6.603 3.789 5.73699 2.64502Z" fill="currentcolor"/>
    <path d="M17.5 0C17.367 0 17.238 0.0129844 17.1259 0.0350156C15.07 0.384 12.004 2.97098 11.49 5.382C11.456 5.541 11.502 5.70698 11.613 5.826C11.708 5.928 11.841 5.98598 11.979 5.98598C12.001 5.98598 12.024 5.98397 12.046 5.982C12.6079 5.90498 17.551 5.178 19.036 3.28102C19.0399 3.27703 19.0429 3.27202 19.047 3.26803C19.339 2.91098 19.5 2.46098 19.5 2.00002C19.5 0.897 18.603 0 17.5 0ZM18.292 2.61098C18.282 2.622 18.2719 2.63297 18.2629 2.646C17.398 3.78802 14.4589 4.539 12.7169 4.86C13.5309 3.08798 15.7949 1.275 17.3059 1.01902C17.3689 1.00702 17.434 1.00003 17.5 1.00003C18.051 1.00003 18.4999 1.44802 18.4999 2.00002C18.5 2.22398 18.428 2.43398 18.292 2.61098Z" fill="currentcolor"/>
  </svg>

  <svg id="facebook" viewBox="0 0 24 24" fill="none">
    <path d="M15.997 3.985H18.188V0.169C17.81 0.117 16.51 0 14.996 0C11.837 0 9.67301 1.987 9.67301 5.639V9H6.18701V13.266H9.67301V24H13.947V13.267H17.292L17.823 9.001H13.946V6.062C13.947 4.829 14.279 3.985 15.997 3.985V3.985Z" fill="currentcolor"/>
  </svg>

  <svg id="twitter" viewBox="0 0 24 24" fill="none">
    <path d="M23.643 4.93683C22.808 5.30683 21.911 5.55683 20.968 5.66983C21.941 5.08763 22.669 4.1713 23.016 3.09183C22.1019 3.63482 21.1014 4.01703 20.058 4.22183C19.3564 3.4727 18.4271 2.97616 17.4143 2.80931C16.4016 2.64245 15.3621 2.81462 14.4573 3.29909C13.5524 3.78355 12.8328 4.55319 12.4102 5.48854C11.9875 6.42388 11.8855 7.47258 12.12 8.47183C10.2677 8.37883 8.45564 7.89738 6.80144 7.05874C5.14723 6.22009 3.68785 5.04299 2.51801 3.60383C2.11801 4.29383 1.88801 5.09383 1.88801 5.94583C1.88757 6.71283 2.07644 7.46808 2.43789 8.14457C2.79934 8.82106 3.32217 9.39787 3.96001 9.82383C3.22029 9.8003 2.49688 9.60042 1.85001 9.24083V9.30083C1.84994 10.3766 2.22204 11.4192 2.90319 12.2518C3.58435 13.0844 4.53258 13.6558 5.58701 13.8688C4.9008 14.0545 4.18135 14.0819 3.48301 13.9488C3.78051 14.8744 4.36001 15.6839 5.14038 16.2638C5.92075 16.8437 6.86293 17.165 7.83501 17.1828C6.18485 18.4782 4.1469 19.1809 2.04901 19.1778C1.67739 19.1779 1.30609 19.1562 0.937012 19.1128C3.06649 20.482 5.54535 21.2087 8.07701 21.2058C16.647 21.2058 21.332 14.1078 21.332 7.95183C21.332 7.75183 21.327 7.54983 21.318 7.34983C22.2293 6.69081 23.0159 5.87473 23.641 4.93983L23.643 4.93683V4.93683Z" fill="currentcolor"/>
  </svg>

  <svg id="vk" viewBox="0 0 24 24" fill="none">
    <path fill-rule="evenodd" clip-rule="evenodd" d="M23.45 5.948C23.616 5.402 23.45 5 22.655 5H20.03C19.362 5 19.054 5.347 18.887 5.73C18.887 5.73 17.552 8.926 15.661 11.002C15.049 11.604 14.771 11.795 14.437 11.795C14.27 11.795 14.019 11.604 14.019 11.057V5.948C14.019 5.292 13.835 5 13.279 5H9.151C8.734 5 8.483 5.304 8.483 5.593C8.483 6.214 9.429 6.358 9.526 8.106V11.904C9.526 12.737 9.373 12.888 9.039 12.888C8.149 12.888 5.984 9.677 4.699 6.003C4.45 5.288 4.198 5 3.527 5H0.9C0.15 5 0 5.347 0 5.73C0 6.412 0.89 9.8 4.145 14.281C6.315 17.341 9.37 19 12.153 19C13.822 19 14.028 18.632 14.028 17.997V15.684C14.028 14.947 14.186 14.8 14.715 14.8C15.105 14.8 15.772 14.992 17.33 16.467C19.11 18.216 19.403 19 20.405 19H23.03C23.78 19 24.156 18.632 23.94 17.904C23.702 17.18 22.852 16.129 21.725 14.882C21.113 14.172 20.195 13.407 19.916 13.024C19.527 12.533 19.638 12.314 19.916 11.877C19.916 11.877 23.116 7.451 23.449 5.948H23.45Z" fill="currentcolor"/>
  </svg>

</svg>
