<svg xmlns="http://www.w3.org/2000/svg" width="500" height="500" viewBox="0 0 500 500" fill="none"><path fill="#0D2436" d="M0 0h500v500H0z"/><path fill="#fff" d="M169.8 222.6v-26.9a80.703 80.703 0 0 1 23.636-57.064 80.703 80.703 0 0 1 114.128 0A80.703 80.703 0 0 1 331.2 195.7h-40.35v26.9h53.8a26.9 26.9 0 0 1 26.9 26.9v107.6a26.9 26.9 0 0 1-26.9 26.9h-188.3a26.9 26.9 0 0 1-26.9-26.9V249.5c0-14.795 12.105-26.9 26.9-26.9h13.45Zm67.25 90.518v30.532h26.9v-30.532a26.898 26.898 0 0 0 2.926-44.637 26.9 26.9 0 1 0-29.826 44.637ZM210.15 195.7v26.9h80.7v-26.9a40.351 40.351 0 0 0-68.882-28.532A40.351 40.351 0 0 0 210.15 195.7Z"/></svg>
